<?xml version="1.0" encoding="UTF-8"?>
<svg id="Layer_1" data-name="Layer 1" xmlns="http://www.w3.org/2000/svg" viewBox="0 0 1366 768">
  <defs>
    <style>
      .cls-1 {
        fill: #f0f;
      }

      .cls-2 {
        fill: lime;
      }

      .cls-3 {
        fill: #a04d15;
      }

      .cls-4 {
        fill: blue;
      }

      .cls-5 {
        fill: #ff0;
      }

      .cls-6 {
        fill: red;
      }
    </style>
  </defs>
  <g>
    <rect class="cls-3" x=".5" y=".5" width="1365" height="767"/>
    <path d="M1365,1v766H1V1h1364M1366,0H0v768h1366V0h0Z"/>
  </g>
  <g>
    <path class="cls-6" d="M693.4,621.97c-62.84,0-121.92-24.47-166.35-68.91-44.43-44.43-68.91-103.51-68.91-166.35s24.47-121.92,68.91-166.35,103.51-68.91,166.35-68.91,121.92,24.47,166.35,68.91,68.91,103.51,68.91,166.35-24.47,121.92-68.91,166.35-103.51,68.91-166.35,68.91Z"/>
    <path d="M693.4,151.96c31.69,0,62.44,6.21,91.38,18.45,27.95,11.82,53.06,28.75,74.62,50.31,21.56,21.56,38.49,46.67,50.31,74.62,12.24,28.94,18.45,59.69,18.45,91.38s-6.21,62.44-18.45,91.38c-11.82,27.95-28.75,53.06-50.31,74.62-21.56,21.56-46.67,38.49-74.62,50.31-28.94,12.24-59.69,18.45-91.38,18.45s-62.44-6.21-91.38-18.45c-27.95-11.82-53.06-28.75-74.62-50.31-21.56-21.56-38.49-46.67-50.31-74.62-12.24-28.94-18.45-59.69-18.45-91.38s6.21-62.44,18.45-91.38c11.82-27.95,28.75-53.06,50.31-74.62,21.56-21.56,46.67-38.49,74.62-50.31,28.94-12.24,59.69-18.45,91.38-18.45M693.4,150.96c-130.21,0-235.76,105.55-235.76,235.76s105.55,235.76,235.76,235.76,235.76-105.55,235.76-235.76-105.55-235.76-235.76-235.76h0Z"/>
  </g>
  <g>
    <path class="cls-2" d="M1060.91,621.97c-62.84,0-121.92-24.47-166.35-68.91s-68.91-103.51-68.91-166.35,24.47-121.92,68.91-166.35,103.51-68.91,166.35-68.91,121.92,24.47,166.35,68.91c44.43,44.43,68.91,103.51,68.91,166.35s-24.47,121.92-68.91,166.35-103.51,68.91-166.35,68.91Z"/>
    <path d="M1060.91,151.96c31.69,0,62.44,6.21,91.38,18.45,27.95,11.82,53.06,28.75,74.62,50.31,21.56,21.56,38.49,46.67,50.31,74.62,12.24,28.94,18.45,59.69,18.45,91.38s-6.21,62.44-18.45,91.38c-11.82,27.95-28.75,53.06-50.31,74.62s-46.67,38.49-74.62,50.31c-28.94,12.24-59.69,18.45-91.38,18.45s-62.44-6.21-91.38-18.45c-27.95-11.82-53.06-28.75-74.62-50.31-21.56-21.56-38.49-46.67-50.31-74.62-12.24-28.94-18.45-59.69-18.45-91.38s6.21-62.44,18.45-91.38c11.82-27.95,28.75-53.06,50.31-74.62,21.56-21.56,46.67-38.49,74.62-50.31,28.94-12.24,59.69-18.45,91.38-18.45M1060.91,150.96c-130.21,0-235.76,105.55-235.76,235.76s105.55,235.76,235.76,235.76,235.76-105.55,235.76-235.76-105.55-235.76-235.76-235.76h0Z"/>
  </g>
  <g>
    <path class="cls-4" d="M309.09,616.54c-62.84,0-121.92-24.47-166.35-68.91-44.43-44.43-68.91-103.51-68.91-166.35s24.47-121.92,68.91-166.35,103.51-68.91,166.35-68.91,121.92,24.47,166.35,68.91c44.43,44.43,68.91,103.51,68.91,166.35s-24.47,121.92-68.91,166.35c-44.43,44.43-103.51,68.91-166.35,68.91Z"/>
    <path d="M309.09,146.53c31.69,0,62.44,6.21,91.38,18.45,27.95,11.82,53.06,28.75,74.62,50.31,21.56,21.56,38.49,46.67,50.31,74.62,12.24,28.94,18.45,59.69,18.45,91.38s-6.21,62.44-18.45,91.38c-11.82,27.95-28.75,53.06-50.31,74.62-21.56,21.56-46.67,38.49-74.62,50.31-28.94,12.24-59.69,18.45-91.38,18.45s-62.44-6.21-91.38-18.45c-27.95-11.82-53.06-28.75-74.62-50.31-21.56-21.56-38.49-46.67-50.31-74.62-12.24-28.94-18.45-59.69-18.45-91.38s6.21-62.44,18.45-91.38c11.82-27.95,28.75-53.06,50.31-74.62,21.56-21.56,46.67-38.49,74.62-50.31,28.94-12.24,59.69-18.45,91.38-18.45M309.09,145.53c-130.21,0-235.76,105.55-235.76,235.76s105.55,235.76,235.76,235.76,235.76-105.55,235.76-235.76-105.55-235.76-235.76-235.76h0Z"/>
  </g>
  <g>
    <path class="cls-5" d="M877.16,533.63c-33.22-41.49-51.51-93.64-51.51-146.91s18.29-105.42,51.51-146.91c33.21,41.5,51.5,93.65,51.5,146.91s-18.29,105.41-51.5,146.91Z"/>
    <path d="M877.16,240.61c16.05,20.16,28.59,42.62,37.26,66.78,9.12,25.4,13.74,52.09,13.74,79.33s-4.62,53.93-13.74,79.33c-8.67,24.16-21.2,46.62-37.26,66.78-16.06-20.16-28.59-42.62-37.27-66.78-9.12-25.4-13.74-52.09-13.74-79.33s4.62-53.93,13.74-79.33c8.67-24.16,21.21-46.62,37.27-66.78M877.16,239.01c-32.54,40.42-52.01,91.79-52.01,147.71s19.47,107.29,52.01,147.71c32.53-40.42,52-91.79,52-147.71s-19.47-107.29-52-147.71h0Z"/>
  </g>
  <g>
    <path class="cls-1" d="M499.32,519.72c-26.95-39.23-41.18-85.2-41.18-133,0-50.18,15.57-98.03,45.03-138.44,26.95,39.23,41.18,85.2,41.18,133,0,50.18-15.57,98.03-45.03,138.44Z"/>
    <path d="M503.16,249.15c26.63,39.02,40.69,84.67,40.69,132.13,0,49.83-15.39,97.37-44.52,137.57-26.63-39.02-40.69-84.67-40.69-132.13,0-49.83,15.39-97.37,44.52-137.57M503.18,247.42c-28.63,39.03-45.54,87.19-45.54,139.3s15.39,95.84,41.67,133.86c28.63-39.03,45.54-87.19,45.54-139.3s-15.39-95.84-41.67-133.86h0Z"/>
  </g>
</svg>