<?xml version="1.0" encoding="UTF-8"?>
<svg id="Layer_1" data-name="Layer 1" xmlns="http://www.w3.org/2000/svg" viewBox="0 0 32 32">
  <defs>
    <style>
      .cls-1 {
        fill: aqua;
      }

      .cls-1, .cls-2, .cls-3 {
        stroke: #000;
        stroke-miterlimit: 10;
        stroke-width: .25px;
      }

      .cls-4 {
        fill: lime;
      }

      .cls-5 {
        fill: blue;
      }

      .cls-6 {
        fill: #fff;
      }

      .cls-2 {
        fill: #f0f;
      }

      .cls-7 {
        fill: red;
      }

      .cls-3 {
        fill: #ff0;
      }
    </style>
  </defs>
  <path class="cls-4" d="M22.57,30.49c-5.12,0-9.28-4.08-9.28-9.09s4.16-9.09,9.28-9.09,9.28,4.08,9.28,9.09-4.16,9.09-9.28,9.09h0Z"/>
  <g>
    <g>
      <path class="cls-7" d="M15.96,19.37c-5.02,0-9.1-4.08-9.1-9.1S10.94,1.17,15.96,1.17s9.1,4.08,9.1,9.1-4.08,9.1-9.1,9.1h0Z"/>
      <path d="M15.96,1.33c2.39,0,4.63.93,6.32,2.62,1.69,1.69,2.62,3.93,2.62,6.32s-.93,4.63-2.62,6.32-3.93,2.62-6.32,2.62-4.63-.93-6.32-2.62-2.62-3.93-2.62-6.32.93-4.63,2.62-6.32c1.69-1.69,3.93-2.62,6.32-2.62M15.96,1.01c-5.11,0-9.26,4.15-9.26,9.26s4.15,9.26,9.26,9.26,9.26-4.15,9.26-9.26S21.07,1.01,15.96,1.01h0Z"/>
    </g>
    <g>
      <path class="cls-5" d="M9.42,30.49C4.4,30.49.32,26.41.32,21.39s4.08-9.1,9.1-9.1,9.1,4.08,9.1,9.1-4.08,9.1-9.1,9.1h0Z"/>
      <path d="M9.42,12.45c2.39,0,4.63.93,6.32,2.62,1.69,1.69,2.62,3.93,2.62,6.32s-.93,4.63-2.62,6.32-3.93,2.62-6.32,2.62-4.63-.93-6.32-2.62c-1.69-1.69-2.62-3.93-2.62-6.32s.93-4.63,2.62-6.32,3.93-2.62,6.32-2.62M9.42,12.13C4.3,12.13.16,16.28.16,21.39s4.15,9.26,9.26,9.26,9.26-4.15,9.26-9.26-4.15-9.26-9.26-9.26h0Z"/>
    </g>
    <path class="cls-3" d="M15.95,15.16s2.7-3.79,8.89-2.65c0,0-1.37,5.26-6.52,6.5"/>
    <path class="cls-2" d="M7.11,12.54s5.26-1.38,8.85,2.52c0,0-1.94,2.29-2.2,3.95,0,0-4.62-.51-6.65-6.47h0Z"/>
    <path class="cls-1" d="M13.7,19.05c-1.43,4.97,2.37,8.74,2.37,8.74,3.94-4.68,2.03-8.84,2.03-8.84"/>
    <path class="cls-6" d="M15.96,15.06s-2.08,2.48-2.21,4.03c0,0,2.53.69,4.49,0,0,0-.97-3.03-2.28-4.03h0Z"/>
    <path d="M9.42,12.45c2.39,0,4.63.93,6.32,2.62,1.69,1.69,2.62,3.93,2.62,6.32s-.93,4.63-2.62,6.32-3.93,2.62-6.32,2.62-4.63-.93-6.32-2.62c-1.69-1.69-2.62-3.93-2.62-6.32s.93-4.63,2.62-6.32,3.93-2.62,6.32-2.62M9.42,12.13C4.3,12.13.16,16.28.16,21.39s4.15,9.26,9.26,9.26,9.26-4.15,9.26-9.26-4.15-9.26-9.26-9.26h0Z"/>
    <path d="M15.96,1.33c2.39,0,4.63.93,6.32,2.62,1.69,1.69,2.62,3.93,2.62,6.32s-.93,4.63-2.62,6.32-3.93,2.62-6.32,2.62-4.63-.93-6.32-2.62-2.62-3.93-2.62-6.32.93-4.63,2.62-6.32c1.69-1.69,3.93-2.62,6.32-2.62M15.96,1.01c-5.11,0-9.26,4.15-9.26,9.26s4.15,9.26,9.26,9.26,9.26-4.15,9.26-9.26S21.07,1.01,15.96,1.01h0Z"/>
    <path d="M22.57,12.45c2.39,0,4.63.93,6.32,2.62s2.62,3.93,2.62,6.32-.93,4.63-2.62,6.32-3.93,2.62-6.32,2.62-4.63-.93-6.32-2.62-2.62-3.93-2.62-6.32.93-4.63,2.62-6.32,3.93-2.62,6.32-2.62M22.57,12.13c-5.11,0-9.26,4.15-9.26,9.26s4.15,9.26,9.26,9.26,9.26-4.15,9.26-9.26-4.15-9.26-9.26-9.26h0Z"/>
  </g>
</svg>